<svg xmlns="http://www.w3.org/2000/svg" viewBox="0 0 1600 1000" preserveAspectRatio="xMidYMid slice">
  <defs>
    <linearGradient id="bg" x1="0" y1="0" x2="1" y2="1">
      <stop offset="0%" stop-color="#0D2C54"/>
      <stop offset="55%" stop-color="#164173"/>
      <stop offset="100%" stop-color="#2EA3F2"/>
    </linearGradient>
    <linearGradient id="panel" x1="0" y1="0" x2="1" y2="0">
      <stop offset="0%" stop-color="#EAF6FF" stop-opacity="0.92"/>
      <stop offset="100%" stop-color="#FFFFFF" stop-opacity="0.78"/>
    </linearGradient>
    <filter id="blur" x="-20%" y="-20%" width="140%" height="140%">
      <feGaussianBlur stdDeviation="28"/>
    </filter>
  </defs>

  <rect width="1600" height="1000" fill="url(#bg)"/>
  <circle cx="1280" cy="140" r="220" fill="#BDE7FF" fill-opacity="0.25" filter="url(#blur)"/>
  <circle cx="240" cy="860" r="260" fill="#8ED1FF" fill-opacity="0.14" filter="url(#blur)"/>

  <g transform="translate(930 180)">
    <rect width="520" height="560" rx="28" fill="url(#panel)"/>
    <rect x="40" y="56" width="440" height="96" rx="16" fill="#0D2C54" fill-opacity="0.12"/>
    <circle cx="110" cy="104" r="26" fill="#2EA3F2" fill-opacity="0.55"/>
    <rect x="160" y="84" width="260" height="12" rx="6" fill="#0D2C54" fill-opacity="0.28"/>
    <rect x="160" y="108" width="180" height="10" rx="5" fill="#0D2C54" fill-opacity="0.2"/>

    <rect x="40" y="186" width="440" height="320" rx="18" fill="#ffffff" fill-opacity="0.82"/>
    <rect x="72" y="220" width="376" height="28" rx="8" fill="#0D2C54" fill-opacity="0.14"/>
    <rect x="72" y="268" width="376" height="18" rx="7" fill="#0D2C54" fill-opacity="0.09"/>
    <rect x="72" y="298" width="320" height="18" rx="7" fill="#0D2C54" fill-opacity="0.09"/>

    <g transform="translate(86 354)">
      <circle cx="52" cy="52" r="46" fill="#2EA3F2" fill-opacity="0.2"/>
      <path d="M52 18v68M18 52h68M28 28l48 48M76 28L28 76" stroke="#0D2C54" stroke-opacity="0.45" stroke-width="6" stroke-linecap="round"/>
    </g>
    <rect x="174" y="390" width="274" height="14" rx="7" fill="#0D2C54" fill-opacity="0.18"/>
    <rect x="174" y="416" width="220" height="12" rx="6" fill="#0D2C54" fill-opacity="0.12"/>
  </g>

  <g transform="translate(170 180)">
    <rect width="600" height="640" rx="30" fill="#FFFFFF" fill-opacity="0.1"/>
    <g transform="translate(58 78)">
      <circle cx="78" cy="78" r="68" fill="#EAF6FF" fill-opacity="0.88"/>
      <path d="M78 24v108M24 78h108M40 40l76 76M116 40L40 116" stroke="#0D2C54" stroke-width="8" stroke-linecap="round"/>
    </g>
    <rect x="58" y="238" width="486" height="18" rx="9" fill="#ffffff" fill-opacity="0.7"/>
    <rect x="58" y="272" width="430" height="14" rx="7" fill="#ffffff" fill-opacity="0.45"/>
    <rect x="58" y="304" width="380" height="14" rx="7" fill="#ffffff" fill-opacity="0.45"/>
    <rect x="58" y="388" width="220" height="54" rx="27" fill="#2EA3F2" fill-opacity="0.82"/>
    <rect x="294" y="388" width="170" height="54" rx="27" fill="#ffffff" fill-opacity="0.2"/>
  </g>

  <g fill="#FFFFFF" fill-opacity="0.45">
    <circle cx="210" cy="110" r="4"/>
    <circle cx="360" cy="70" r="3"/>
    <circle cx="500" cy="160" r="4"/>
    <circle cx="640" cy="120" r="3"/>
    <circle cx="790" cy="90" r="4"/>
    <circle cx="1450" cy="220" r="3"/>
    <circle cx="1320" cy="330" r="4"/>
    <circle cx="1180" cy="260" r="3"/>
    <circle cx="150" cy="690" r="4"/>
    <circle cx="380" cy="880" r="3"/>
    <circle cx="610" cy="760" r="4"/>
    <circle cx="1460" cy="760" r="4"/>
  </g>
</svg>
